# Blender v2.79 (sub 0) OBJ File: ''
# www.blender.org
mtllib Blockv2.mtl
o block
v -74.859375 -65.126968 75.005074
v -74.859375 -32.559196 42.432224
v -74.859375 -65.129509 42.434761
v -74.859375 65.138657 74.994926
v -74.859375 -32.554123 107.565033
v -74.859375 32.570877 107.559967
v -74.859375 32.573414 140.130280
v 65.046875 74.862679 42.462921
v 74.859375 65.133583 9.854302
v 65.046875 74.860153 9.939482
v 74.859375 65.136116 42.424614
v 65.046875 74.865219 74.994171
v 74.859375 65.138657 74.994926
v 74.859375 65.141190 107.557426
v 74.859375 -65.129509 42.434761
v 65.046875 -74.858597 9.951141
v 74.859375 -65.132042 9.864448
v 65.046875 -74.856071 42.474579
v 74.859375 -65.126968 75.005074
v 65.046875 -74.853531 75.005829
v 65.046875 -74.850998 107.529266
v 74.859375 -32.559196 42.432224
v 74.859375 32.565804 42.427151
v 65.148438 -65.148430 0.137885
v 74.859375 -32.561733 9.861911
v 74.859375 32.563267 9.856839
v 65.148438 65.148445 0.127739
v 32.523438 74.867752 107.517609
v 65.046875 74.867752 107.517609
v -65.046875 74.865219 74.994171
v -32.523438 74.862679 42.462921
v -65.046875 74.862679 42.462921
v -65.148438 -65.136765 149.864441
v -74.859375 -32.551586 140.135345
v -74.859375 -65.121902 140.137878
v -65.148438 65.160110 149.854309
v -74.859375 65.143723 140.127747
v 74.859375 -32.551586 140.135345
v 65.148438 -65.136765 149.864441
v 74.859375 -65.121902 140.137878
v 65.148438 65.160110 149.854309
v 74.859375 32.573414 140.130280
v 74.859375 65.143723 140.127747
v -65.046875 -74.853531 75.005829
v -32.523438 -74.850998 107.529266
v -65.046875 -74.850998 107.529266
v 32.523438 -74.856071 42.474579
v -65.046875 74.867752 107.517609
v -65.046875 74.870277 140.041046
v -74.859375 65.141190 107.557426
v -74.859375 -65.124435 107.567574
v -65.046875 -74.848473 140.052704
v -65.148438 65.148445 0.127739
v -74.859375 32.563267 9.856839
v -74.859375 65.133583 9.854302
v -74.859375 -32.561733 9.861911
v -65.148438 -65.148430 0.137885
v -74.859375 -65.132042 9.864448
v 65.046875 74.870277 140.041046
v 74.859375 32.570877 107.559967
v 74.859375 -32.554123 107.565033
v 32.523438 74.862679 42.462921
v -32.523438 74.860153 9.939482
v -74.859375 32.565804 42.427151
v -74.859375 65.136116 42.424614
v -32.523438 -74.856071 42.474579
v -65.046875 -74.856071 42.474579
v 32.523438 -74.858597 9.951141
v 32.523438 -74.850998 107.529266
v -32.523438 -74.848473 140.052704
v -32.523438 74.867752 107.517609
v 32.523438 74.870277 140.041046
v 74.859375 -65.124435 107.567574
v 65.046875 -74.848473 140.052704
v 65.046875 74.867752 107.517609
v 32.523438 74.870277 140.041046
v 65.046875 74.870277 140.041046
v 32.523438 74.867752 107.517609
v -32.523438 -74.858597 9.951141
v -65.046875 -74.858597 9.951141
v -32.523438 74.870277 140.041046
v 74.859375 -32.554123 107.565033
v 74.859375 -65.121902 140.137878
v 74.859375 -65.124435 107.567574
v 74.859375 -32.551586 140.135345
v 32.523438 74.860153 9.939482
v -65.046875 74.860153 9.939482
v 32.523438 -74.848473 140.052704
v -74.859375 65.133583 9.854302
v -74.859375 32.565804 42.427151
v -74.859375 65.136116 42.424614
v -74.859375 32.563267 9.856839
v -65.046875 -74.858597 9.951141
v -32.523438 -74.856071 42.474579
v -65.046875 -74.856071 42.474579
v -32.523438 -74.858597 9.951141
v 65.046875 -74.858597 9.951141
v 32.523438 -74.856071 42.474579
v 32.523438 -74.858597 9.951141
v 65.046875 -74.856071 42.474579
v -65.046875 74.862679 42.462921
v -32.523438 74.860153 9.939482
v -65.046875 74.860153 9.939482
v -32.523438 74.862679 42.462921
v -74.859375 -32.559196 42.432224
v -74.859375 -65.132042 9.864448
v -74.859375 -65.129509 42.434761
v -74.859375 -32.561733 9.861911
v 74.859375 65.133583 9.854302
v 74.859375 32.565804 42.427151
v 74.859375 32.563267 9.856839
v 74.859375 65.136116 42.424614
v -74.859375 65.143723 140.127747
v -74.859375 32.570877 107.559967
v -74.859375 32.573414 140.130280
v -74.859375 65.141190 107.557426
v 74.859375 -32.559196 42.432224
v 74.859375 -65.132042 9.864448
v 74.859375 -32.561733 9.861911
v 74.859375 -65.129509 42.434761
v -65.046875 74.867752 107.517609
v -32.523438 74.870277 140.041046
v -32.523438 74.867752 107.517609
v -65.046875 74.870277 140.041046
v -74.859375 -32.554123 107.565033
v -74.859375 -65.121902 140.137878
v -74.859375 -32.551586 140.135345
v -74.859375 -65.124435 107.567574
v -65.046875 -74.848473 140.052704
v -32.523438 -74.850998 107.529266
v -32.523438 -74.848473 140.052704
v -65.046875 -74.850998 107.529266
v 65.046875 -74.848473 140.052704
v 32.523438 -74.850998 107.529266
v 65.046875 -74.850998 107.529266
v 32.523438 -74.848473 140.052704
v 74.859375 65.143723 140.127747
v 74.859375 32.570877 107.559967
v 74.859375 65.141190 107.557426
v 74.859375 32.573414 140.130280
v 65.046875 74.862679 42.462921
v 32.523438 74.860153 9.939482
v 32.523438 74.862679 42.462921
v 65.046875 74.860153 9.939482
vt 0.396240 0.522430
vt 0.396240 0.562500
vt 0.396240 0.562500
vt 0.396240 0.522430
vt 0.396240 0.562500
vt 0.396240 0.562500
vt 0.396240 0.602539
vt 0.406158 0.562500
vt 0.396240 0.602539
vt 0.406158 0.602539
vt 0.396240 0.562500
vt 0.406158 0.522430
vt 0.396240 0.522430
vt 0.396240 0.562500
vt 0.396240 0.562500
vt 0.406158 0.602539
vt 0.396240 0.602539
vt 0.406158 0.562500
vt 0.396240 0.522430
vt 0.406158 0.522430
vt 0.406158 0.562500
vt 0.396240 0.562500
vt 0.396240 0.562500
vt 0.406158 0.612457
vt 0.396240 0.602539
vt 0.396240 0.602539
vt 0.406158 0.612457
vt 0.446198 0.562500
vt 0.406158 0.562500
vt 0.406158 0.522430
vt 0.446198 0.562500
vt 0.406158 0.562500
vt 0.406158 0.612457
vt 0.396240 0.602539
vt 0.396240 0.602539
vt 0.406158 0.612457
vt 0.396240 0.602539
vt 0.396240 0.602539
vt 0.406158 0.612457
vt 0.396240 0.602539
vt 0.406158 0.612457
vt 0.396240 0.602539
vt 0.396240 0.602539
vt 0.406158 0.522430
vt 0.446198 0.562500
vt 0.406158 0.562500
vt 0.446198 0.562500
vt 0.406158 0.562500
vt 0.406158 0.602539
vt 0.396240 0.562500
vt 0.396240 0.562500
vt 0.406158 0.602539
vt 0.406158 0.612457
vt 0.396240 0.602539
vt 0.396240 0.602539
vt 0.396240 0.602539
vt 0.406158 0.612457
vt 0.396240 0.602539
vt 0.406158 0.602539
vt 0.396240 0.562500
vt 0.396240 0.562500
vt 0.446198 0.562500
vt 0.446198 0.602539
vt 0.396240 0.562500
vt 0.396240 0.562500
vt 0.446198 0.562500
vt 0.406158 0.562500
vt 0.446198 0.602539
vt 0.446198 0.562500
vt 0.446198 0.602539
vt 0.446198 0.562500
vt 0.446198 0.602539
vt 0.396240 0.562500
vt 0.406158 0.602539
vt 0.516510 0.497894
vt 0.013885 1.000458
vt 0.516510 1.000458
vt 0.013885 0.497894
vt 0.446198 0.602539
vt 0.406158 0.602539
vt 0.446198 0.602539
vt 0.013885 0.497894
vt 0.516510 1.000458
vt 0.516510 0.497894
vt 0.013885 1.000458
vt 0.446198 0.602539
vt 0.406158 0.602539
vt 0.446198 0.602539
vt -0.019257 0.489075
vt 0.483307 0.991669
vt -0.019257 0.991669
vt 0.483307 0.489075
vt -0.019257 0.489075
vt 0.483307 0.991669
vt -0.019257 0.991669
vt 0.483307 0.489075
vt -0.019257 0.489075
vt 0.483307 0.991669
vt 0.483307 0.489075
vt -0.019257 0.991669
vt -0.019257 0.991669
vt 0.483307 0.489075
vt -0.019257 0.489075
vt 0.483307 0.991669
vt 0.483307 0.991669
vt -0.019257 0.489075
vt -0.019257 0.991669
vt 0.483307 0.489075
vt -0.019257 0.489075
vt 0.483307 0.991669
vt 0.483307 0.489075
vt -0.019257 0.991669
vt 0.516510 1.000458
vt 0.013885 0.497894
vt 0.013885 1.000458
vt 0.516510 0.497894
vt 0.483307 0.991669
vt -0.019257 0.489075
vt 0.483307 0.489075
vt -0.019257 0.991669
vt 0.516510 0.497894
vt 0.013885 1.000458
vt 0.013885 0.497894
vt 0.516510 1.000458
vt 0.013885 0.497894
vt 0.516510 1.000458
vt 0.013885 1.000458
vt 0.516510 0.497894
vt 0.516510 1.000458
vt 0.013885 0.497894
vt 0.013885 1.000458
vt 0.516510 0.497894
vt 0.516510 1.000458
vt 0.013885 0.497894
vt 0.516510 0.497894
vt 0.013885 1.000458
vt 0.516510 1.000458
vt 0.013885 0.497894
vt 0.516510 0.497894
vt 0.013885 1.000458
vt -0.019257 0.991669
vt 0.483307 0.489075
vt 0.483307 0.991669
vt -0.019257 0.489075
vn -1.0000 0.0000 0.0000
vn 0.7040 0.7102 -0.0001
vn 0.7040 -0.7102 0.0001
vn 1.0000 0.0000 0.0000
vn 0.7077 -0.0001 -0.7065
vn 0.0000 1.0000 -0.0001
vn -0.7077 0.0001 0.7065
vn 0.7077 0.0001 0.7065
vn 0.0000 -1.0000 0.0001
vn -0.7040 0.7102 -0.0001
vn -0.7040 -0.7102 0.0001
vn -0.7077 -0.0001 -0.7065
vn 0.0000 -0.7108 -0.7034
vn 0.0000 0.0001 1.0000
vn 0.0000 0.7108 0.7034
vn 0.0000 0.7107 -0.7035
vn 0.0000 -0.7107 0.7035
vn 0.0000 -0.0001 -1.0000
vn 0.5746 0.5847 0.5727
vn 0.5746 -0.5847 0.5728
vn 0.5746 0.5847 -0.5728
vn -0.5746 0.5847 0.5727
vn -0.5746 -0.5847 -0.5727
vn 0.5746 -0.5847 -0.5727
vn -0.5746 0.5847 -0.5728
vn -0.5746 -0.5847 0.5728
usemtl block
s off
f 1/1/1 2/2/1 3/3/1
f 2/2/1 1/1/1 4/4/1
f 5/5/1 4/4/1 1/1/1
f 4/4/1 5/5/1 6/6/1
f 7/7/1 6/6/1 5/5/1
f 8/8/2 9/9/2 10/10/2
f 9/9/2 8/8/2 11/11/2
f 12/12/2 11/11/2 8/8/2
f 11/11/2 12/12/2 13/13/2
f 14/14/2 13/13/2 12/12/2
f 15/15/3 16/16/3 17/17/3
f 16/16/3 15/15/3 18/18/3
f 19/19/3 18/18/3 15/15/3
f 18/18/3 19/19/3 20/20/3
f 21/21/3 20/20/3 19/19/3
f 22/22/4 19/19/4 15/15/4
f 19/19/4 22/22/4 13/13/4
f 23/23/4 13/13/4 22/22/4
f 13/13/4 23/23/4 11/11/4
f 24/24/5 25/25/5 17/17/5
f 25/25/5 24/24/5 26/26/5
f 27/27/5 26/26/5 24/24/5
f 26/26/5 27/27/5 9/9/5
f 12/12/6 28/28/6 29/29/6
f 28/28/6 12/12/6 30/30/6
f 31/31/6 30/30/6 12/12/6
f 30/30/6 31/31/6 32/32/6
f 33/33/7 34/34/7 35/35/7
f 34/34/7 33/33/7 7/7/7
f 36/36/7 7/7/7 33/33/7
f 7/7/7 36/36/7 37/37/7
f 38/38/8 39/39/8 40/40/8
f 39/39/8 38/38/8 41/41/8
f 42/42/8 41/41/8 38/38/8
f 41/41/8 42/42/8 43/43/8
f 44/44/9 45/45/9 46/46/9
f 45/45/9 44/44/9 20/20/9
f 47/47/9 20/20/9 44/44/9
f 20/20/9 47/47/9 18/18/9
f 48/48/10 37/37/10 49/49/10
f 37/37/10 48/48/10 50/50/10
f 30/30/10 50/50/10 48/48/10
f 50/50/10 30/30/10 4/4/10
f 51/51/11 52/52/11 35/35/11
f 52/52/11 51/51/11 46/46/11
f 1/1/11 46/46/11 51/51/11
f 46/46/11 1/1/11 44/44/11
f 53/53/12 54/54/12 55/55/12
f 54/54/12 53/53/12 56/56/12
f 57/57/12 56/56/12 53/53/12
f 56/56/12 57/57/12 58/58/12
f 29/29/2 14/14/2 12/12/2
f 14/14/2 29/29/2 43/43/2
f 59/59/2 43/43/2 29/29/2
f 60/60/4 13/13/4 14/14/4
f 13/13/4 60/60/4 61/61/4
f 38/38/4 61/61/4 60/60/4
f 62/62/6 12/12/6 8/8/6
f 12/12/6 62/62/6 31/31/6
f 63/63/6 31/31/6 62/62/6
f 64/64/1 4/4/1 65/65/1
f 4/4/1 64/64/1 2/2/1
f 56/56/1 2/2/1 64/64/1
f 66/66/9 44/44/9 67/67/9
f 44/44/9 66/66/9 47/47/9
f 68/68/9 47/47/9 66/66/9
f 69/69/9 20/20/9 21/21/9
f 20/20/9 69/69/9 45/45/9
f 70/70/9 45/45/9 69/69/9
f 71/71/6 30/30/6 48/48/6
f 30/30/6 71/71/6 28/28/6
f 72/72/6 28/28/6 71/71/6
f 73/73/3 21/21/3 19/19/3
f 21/21/3 73/73/3 74/74/3
f 40/40/3 74/74/3 73/73/3
f 19/19/4 61/61/4 73/73/4
f 61/61/4 19/19/4 13/13/4
f 75/75/6 76/76/6 77/77/6
f 76/76/6 75/75/6 78/78/6
f 57/57/13 79/79/13 80/80/13
f 79/79/13 57/57/13 24/24/13
f 39/39/14 36/36/14 33/33/14
f 36/36/14 39/39/14 41/41/14
f 72/72/15 41/41/15 59/59/15
f 41/41/15 72/72/15 81/81/15
f 82/82/4 83/83/4 84/84/4
f 83/83/4 82/82/4 85/85/4
f 27/27/16 86/86/16 10/10/16
f 86/86/16 27/27/16 53/53/16
f 63/63/16 53/53/16 87/87/16
f 53/53/16 63/63/16 86/86/16
f 70/70/17 33/33/17 52/52/17
f 33/33/17 70/70/17 88/88/17
f 89/89/1 90/90/1 91/91/1
f 90/90/1 89/89/1 92/92/1
f 68/68/13 24/24/13 16/16/13
f 24/24/13 68/68/13 79/79/13
f 36/36/15 81/81/15 49/49/15
f 81/81/15 36/36/15 41/41/15
f 39/39/17 88/88/17 74/74/17
f 88/88/17 39/39/17 33/33/17
f 93/93/9 94/94/9 95/95/9
f 94/94/9 93/93/9 96/96/9
f 97/97/9 98/98/9 99/99/9
f 98/98/9 97/97/9 100/100/9
f 55/55/10 32/32/10 87/87/10
f 32/32/10 55/55/10 65/65/10
f 65/65/10 30/30/10 32/32/10
f 30/30/10 65/65/10 4/4/10
f 80/80/11 3/3/11 58/58/11
f 3/3/11 80/80/11 67/67/11
f 67/67/11 1/1/11 3/3/11
f 1/1/11 67/67/11 44/44/11
f 101/101/6 102/102/6 103/103/6
f 102/102/6 101/101/6 104/104/6
f 105/105/1 106/106/1 107/107/1
f 106/106/1 105/105/1 108/108/1
f 109/109/4 110/110/4 111/111/4
f 110/110/4 109/109/4 112/112/4
f 22/22/4 26/26/4 23/23/4
f 26/26/4 22/22/4 25/25/4
f 113/113/1 114/114/1 115/115/1
f 114/114/1 113/113/1 116/116/1
f 57/57/18 27/27/18 24/24/18
f 27/27/18 57/57/18 53/53/18
f 117/117/4 118/118/4 119/119/4
f 118/118/4 117/117/4 120/120/4
f 121/121/6 122/122/6 123/123/6
f 122/122/6 121/121/6 124/124/6
f 125/125/1 126/126/1 127/127/1
f 126/126/1 125/125/1 128/128/1
f 129/129/9 130/130/9 131/131/9
f 130/130/9 129/129/9 132/132/9
f 133/133/9 134/134/9 135/135/9
f 134/134/9 133/133/9 136/136/9
f 137/137/4 138/138/4 139/139/4
f 138/138/4 137/137/4 140/140/4
f 141/141/6 142/142/6 143/143/6
f 142/142/6 141/141/6 144/144/6
f 59/59/19 41/41/19 43/43/19
f 39/39/20 74/74/20 40/40/20
f 10/10/21 9/9/21 27/27/21
f 49/49/22 37/37/22 36/36/22
f 68/68/9 66/66/9 79/79/9
f 72/72/6 71/71/6 81/81/6
f 57/57/23 80/80/23 58/58/23
f 62/62/6 86/86/6 63/63/6
f 24/24/24 17/17/24 16/16/24
f 60/60/4 42/42/4 38/38/4
f 69/69/9 88/88/9 70/70/9
f 87/87/25 53/53/25 55/55/25
f 51/51/1 5/5/1 1/1/1
f 33/33/26 35/35/26 52/52/26
f 4/4/1 6/6/1 50/50/1
f 64/64/1 54/54/1 56/56/1
f 7/7/1 5/5/1 34/34/1
